<mxfile host="app.diagrams.net" modified="2024-07-23T00:38:37.638Z" agent="Mozilla/5.0 (Windows NT 10.0; Win64; x64) AppleWebKit/537.36 (KHTML, like Gecko) Chrome/126.0.0.0 Safari/537.36" etag="HTsSgJBiC9RrJkVAgkSO" version="24.7.1" type="github">
  <diagram name="Page-1" id="c7558073-3199-34d8-9f00-42111426c3f3">
    <mxGraphModel dx="11050" dy="10617" grid="1" gridSize="10" guides="1" tooltips="1" connect="1" arrows="1" fold="1" page="0" pageScale="1" pageWidth="826" pageHeight="1169" background="none" math="0" shadow="0">
      <root>
        <mxCell id="0" />
        <mxCell id="1" parent="0" />
        <mxCell id="X9ass70m3cK7fkNfl3eS-96" value="&lt;b&gt;Journey - User | Pharmacy&lt;/b&gt;" style="text;html=1;align=center;verticalAlign=middle;whiteSpace=wrap;rounded=0;" vertex="1" parent="1">
          <mxGeometry x="-9100" y="-9720" width="190" height="30" as="geometry" />
        </mxCell>
        <mxCell id="X9ass70m3cK7fkNfl3eS-105" style="edgeStyle=orthogonalEdgeStyle;rounded=0;orthogonalLoop=1;jettySize=auto;html=1;entryX=0.5;entryY=0;entryDx=0;entryDy=0;" edge="1" parent="1" source="X9ass70m3cK7fkNfl3eS-97" target="X9ass70m3cK7fkNfl3eS-99">
          <mxGeometry relative="1" as="geometry" />
        </mxCell>
        <mxCell id="X9ass70m3cK7fkNfl3eS-97" value="User Visit&amp;nbsp;" style="ellipse;whiteSpace=wrap;html=1;aspect=fixed;fillColor=#008a00;strokeColor=#005700;fontColor=#ffffff;" vertex="1" parent="1">
          <mxGeometry x="-9470" y="-9600" width="80" height="80" as="geometry" />
        </mxCell>
        <mxCell id="X9ass70m3cK7fkNfl3eS-98" value="" style="ellipse;whiteSpace=wrap;html=1;aspect=fixed;fillColor=#d80073;strokeColor=#A50040;fontColor=#ffffff;" vertex="1" parent="1">
          <mxGeometry x="-9180" y="-9590" width="80" height="80" as="geometry" />
        </mxCell>
        <mxCell id="X9ass70m3cK7fkNfl3eS-107" style="edgeStyle=orthogonalEdgeStyle;rounded=0;orthogonalLoop=1;jettySize=auto;html=1;entryX=0.5;entryY=0;entryDx=0;entryDy=0;" edge="1" parent="1" source="X9ass70m3cK7fkNfl3eS-99" target="X9ass70m3cK7fkNfl3eS-106">
          <mxGeometry relative="1" as="geometry" />
        </mxCell>
        <mxCell id="X9ass70m3cK7fkNfl3eS-99" value="Pharmacy" style="rounded=1;whiteSpace=wrap;html=1;fillColor=#0050ef;fontColor=#ffffff;strokeColor=#001DBC;" vertex="1" parent="1">
          <mxGeometry x="-9490" y="-9480" width="120" height="60" as="geometry" />
        </mxCell>
        <mxCell id="X9ass70m3cK7fkNfl3eS-106" value="Health ID?" style="rhombus;whiteSpace=wrap;html=1;fillColor=#e1d5e7;strokeColor=#9673a6;" vertex="1" parent="1">
          <mxGeometry x="-9470" y="-9370" width="80" height="80" as="geometry" />
        </mxCell>
        <mxCell id="X9ass70m3cK7fkNfl3eS-110" value="Exit Pharmacy" style="rounded=1;whiteSpace=wrap;html=1;fillColor=#f8cecc;strokeColor=#b85450;dashed=1;dashPattern=8 8;fillStyle=solid;opacity=80;" vertex="1" parent="1">
          <mxGeometry x="-9670" y="-9350" width="100" height="50" as="geometry" />
        </mxCell>
      </root>
    </mxGraphModel>
  </diagram>
</mxfile>
